<?xml version="1.0" encoding="UTF-8"?>
<!-- Generated by Pixelmator Pro 3.3.2 -->
<svg width="2768" height="238" viewBox="0 0 2768 238" xmlns="http://www.w3.org/2000/svg" xmlns:xlink="http://www.w3.org/1999/xlink">
    <linearGradient id="linearGradient1" x1="1402.44904" y1="198.036759" x2="1402.44904" y2="-3.085043" gradientUnits="userSpaceOnUse">
        <stop offset="0" stop-color="#cdcdcd" stop-opacity="1"/>
        <stop offset="1" stop-color="#ffffff" stop-opacity="1"/>
    </linearGradient>
    <filter id="filter1" x="0" y="0" width="2768" height="238" filterUnits="userSpaceOnUse" primitiveUnits="userSpaceOnUse" color-interpolation-filters="sRGB">
        <feFlood flood-color="#ffffff" flood-opacity="0.5"/>
        <feComposite in2="SourceGraphic" operator="out"/>
        <feGaussianBlur stdDeviation="1"/>
        <feOffset dx="2.828427" dy="2.828427"/>
        <feComposite in2="SourceGraphic" operator="atop"/>
    </filter>
    <path id="CHARLESTON-WEATHER" fill="url(#linearGradient1)" fill-rule="evenodd" stroke="none" filter="url(#filter1)" d="M 1280.359375 236.419922 C 1252.819336 236.419922 1230.720459 225.539124 1214.060547 204.119141 C 1197.400513 182.699158 1189.240234 153.799896 1189.240234 117.419922 C 1189.240234 81.719955 1197.400513 53.160217 1214.060547 31.740234 C 1230.720459 10.320251 1252.819336 -0.220703 1280.359375 -0.220703 C 1307.899414 -0.220703 1329.320679 10.320251 1345.300781 31.740234 C 1361.280762 52.820221 1369.099609 81.719482 1369.099609 118.439453 C 1369.099609 154.139404 1360.940918 183.040955 1344.960938 204.460938 C 1328.980957 225.88092 1307.21936 236.419922 1280.359375 236.419922 Z M 1507.140625 236.419922 C 1485.720581 236.419922 1471.440552 225.199585 1464.640625 203.099609 L 1440.839844 127.960938 L 1440.839844 232 L 1379.300781 232 L 1379.300781 36.5 C 1379.300781 13.380035 1393.9198 -0.220703 1419.759766 -0.220703 C 1439.819702 -0.220703 1454.099854 10.999619 1461.919922 33.099609 L 1486.060547 101.779297 L 1486.060547 4.199219 L 1547.599609 4.199219 L 1547.599609 199.699219 C 1547.599609 222.819199 1532.640625 236.419922 1507.140625 236.419922 Z M 1684.960938 236.419922 C 1664.561035 236.419922 1652.659912 226.8992 1648.919922 208.199219 L 1607.099609 4.199219 L 1672.720703 4.199219 L 1690.060547 113.339844 L 1704.339844 26.300781 C 1707.059937 8.620789 1717.600708 -0.220703 1736.300781 -0.220703 C 1754.320679 -0.220703 1764.859863 8.620789 1767.919922 26.300781 L 1783.560547 113.339844 L 1800.900391 4.199219 L 1866.859375 4.199219 L 1823.339844 208.199219 C 1819.259888 226.8992 1807.360718 236.419922 1787.300781 236.419922 C 1766.220703 236.419922 1753.979858 226.8992 1750.919922 208.199219 L 1735.960938 122.859375 L 1721.339844 208.199219 C 1718.279907 226.8992 1706.041016 236.419922 1684.960938 236.419922 Z M 1087.919922 232 L 1087.919922 59.960938 L 1047.800781 59.960938 L 1047.800781 4.199219 L 1192.640625 4.199219 L 1192.640625 59.960938 L 1152.859375 59.960938 L 1152.859375 232 L 1087.919922 232 Z M 1905.279297 232 C 1879.439209 232 1868.560547 219.419189 1868.560547 191.199219 L 1868.560547 45 C 1868.560547 18.14003 1878.759644 4.199219 1904.599609 4.199219 L 1985.859375 4.199219 L 1985.859375 57.580078 L 1933.5 57.580078 L 1933.5 89.199219 L 1981.439453 89.199219 L 1981.439453 141.560547 L 1933.5 141.560547 L 1933.5 178.279297 L 1985.859375 178.279297 L 1985.859375 232 L 1905.279297 232 Z M 1989.259766 232 L 2034.820313 35.140625 C 2040.600342 10.66069 2053.859863 -0.220703 2078.339844 -0.220703 C 2102.479736 -0.220703 2116.759277 11.680679 2121.859375 35.140625 L 2165.039063 232 L 2100.099609 232 L 2095 200.039063 L 2060.320313 200.039063 L 2054.539063 232 L 1989.259766 232 Z M 2177.960938 232 L 2177.960938 59.960938 L 2137.839844 59.960938 L 2137.839844 4.199219 L 2282.679688 4.199219 L 2282.679688 59.960938 L 2242.900391 59.960938 L 2242.900391 232 L 2177.960938 232 Z M 2291.179688 232 L 2291.179688 4.199219 L 2355.099609 4.199219 L 2355.099609 87.5 L 2393.859375 87.5 L 2393.859375 4.199219 L 2457.779297 4.199219 L 2457.779297 232 L 2393.859375 232 L 2393.859375 143.259766 L 2355.099609 143.259766 L 2355.099609 232 L 2291.179688 232 Z M 2508.099609 232 C 2482.259521 232 2471.378906 219.419159 2471.378906 191.199219 L 2471.378906 45 C 2471.378906 18.14006 2481.580078 4.199219 2507.419922 4.199219 L 2588.679688 4.199219 L 2588.679688 57.580078 L 2536.320313 57.580078 L 2536.320313 89.199219 L 2584.259766 89.199219 L 2584.259766 141.560547 L 2536.320313 141.560547 L 2536.320313 178.279297 L 2588.679688 178.279297 L 2588.679688 232 L 2508.099609 232 Z M 2600.580078 232 L 2600.580078 43.640625 C 2600.580078 16.780685 2610.10083 4.199219 2637.300781 4.199219 L 2684.900391 4.199219 C 2734.200439 4.199219 2761.060547 31.739166 2761.060547 72.539063 C 2761.060547 104.839005 2738.619629 123.540642 2729.099609 128.640625 L 2725.359375 130.679688 L 2767.859375 232 L 2697.140625 232 L 2670.960938 156.859375 C 2668.240967 149.039398 2666.878906 141.899445 2666.878906 135.439453 C 2666.878906 120.139481 2673.680664 109.260147 2680.140625 104.160156 C 2686.940674 99.06015 2693.740234 90.220444 2693.740234 77.980469 C 2693.740234 62.680496 2684.219727 55.199219 2665.179688 55.199219 L 2665.179688 232 L 2600.580078 232 Z M 1280.359375 177.599609 C 1295.659424 177.599609 1303.480469 157.540039 1303.480469 117.080078 C 1303.480469 76.620117 1295.659424 56.560547 1280.359375 56.560547 C 1265.059448 56.560547 1257.580078 76.620117 1257.580078 117.080078 C 1257.580078 157.540039 1265.059448 177.599609 1280.359375 177.599609 Z M 2068.820313 150.740234 L 2086.5 150.740234 L 2078 98.720703 L 2068.820313 150.740234 Z M 922 230.300003 C 928.799988 233.020004 946.820007 236.419998 964.840027 236.419998 C 1014.820007 236.419998 1045.420044 209.559998 1045.420044 163.660004 C 1045.76001 123.879997 1019.919983 104.160004 1000.200012 93.279999 C 986.599976 85.119995 975.719971 77.300003 975.719971 69.139999 C 975.719971 58.940002 982.859985 53.839996 997.47998 53.839996 C 1011.419983 53.839996 1024.339966 56.899994 1036.23999 63.360001 L 1036.23999 8.619995 L 1030.119995 6.240005 C 1022.299988 3.520004 1004.280029 -0.220001 988.97998 -0.220001 C 965.52002 -0.220001 946.820007 5.899994 932.880005 18.479996 C 919.280029 31.059998 912.47998 47.380005 912.47998 68.119995 C 912.140015 104.5 937.640015 122.860001 957.359985 134.76001 C 970.960022 143.26001 981.840027 152.779999 981.840027 162.639999 C 981.840027 173.519989 972.320007 180.320007 956.340027 180.320007 C 943.080017 180.320007 929.820007 177.259995 916.559998 171.480011 L 916.559998 228.259995 Z M 825.099976 4.199997 C 799.26001 4.199997 789.059998 18.139999 789.059998 45 L 789.059998 191.199997 C 789.059998 219.419998 799.940002 232 825.780029 232 L 906.359985 232 L 906.359985 178.279999 L 854 178.279999 L 854 141.559998 L 901.940002 141.559998 L 901.940002 89.199997 L 854 89.199997 L 854 57.580002 L 906.359985 57.580002 L 906.359985 4.199997 Z M 664.280029 191.199997 C 664.280029 219.419998 675.159973 232 701 232 L 780.559998 232 L 780.559998 174.880005 L 729.219971 174.880005 L 729.219971 4.199997 L 664.280029 4.199997 Z M 558.200012 232 L 558.200012 55.199997 C 577.23999 55.199997 586.76001 62.679993 586.76001 77.979996 C 586.76001 90.220001 579.960022 99.059998 573.159973 104.160004 C 566.700012 109.259995 559.900024 120.139999 559.900024 135.440002 C 559.900024 141.899994 561.26001 149.040009 563.97998 156.860001 L 590.159973 232 L 660.880005 232 L 618.380005 130.679993 L 622.119995 128.639999 C 631.640015 123.540001 654.080017 104.839996 654.080017 72.539993 C 654.080017 31.740005 627.219971 4.199997 577.919983 4.199997 L 530.320007 4.199997 C 503.119995 4.199997 493.600006 16.779999 493.600006 43.639999 L 493.600006 232 Z M 447.019989 35.139999 C 441.920013 11.679993 427.640015 -0.220001 403.5 -0.220001 C 379.019989 -0.220001 365.76001 10.660004 359.980011 35.139999 L 314.420013 232 L 379.700012 232 L 385.480011 200.040009 L 420.160004 200.040009 L 425.26001 232 L 490.200012 232 Z M 403.160004 98.720001 L 411.660004 150.73999 L 393.980011 150.73999 Z M 208.339996 232 L 208.339996 143.26001 L 247.100006 143.26001 L 247.100006 232 L 311.019989 232 L 311.019989 4.199997 L 247.100006 4.199997 L 247.100006 87.5 L 208.339996 87.5 L 208.339996 4.199997 L 144.419998 4.199997 L 144.419998 232 Z M 103.279999 4.199997 C 69.620003 4.199997 44.119999 14.740005 26.780001 35.820007 C 9.44 56.899994 0.94 84.100006 0.94 117.419998 C 0.94 193.919998 34.939999 232 103.279999 232 L 133.199997 232 L 133.199997 174.880005 L 116.540001 174.880005 C 84.239998 174.880005 67.919998 155.839996 67.919998 117.419998 C 67.919998 80.360001 84.919998 59.960007 116.540001 59.960007 L 133.199997 59.960007 L 133.199997 4.199997 Z"/>
</svg>
